<?xml version="1.0" encoding="UTF-8" standalone="no"?>
<svg
   xmlns:dc="http://purl.org/dc/elements/1.1/"
   xmlns:cc="http://creativecommons.org/ns#"
   xmlns:rdf="http://www.w3.org/1999/02/22-rdf-syntax-ns#"
   xmlns:svg="http://www.w3.org/2000/svg"
   xmlns="http://www.w3.org/2000/svg"
   viewBox="0 0 354.32501 230.3125"
   height="230.3125"
   width="354.32501"
   xml:space="preserve"
   version="1.1"
   id="svg2"><metadata
     id="metadata8"><rdf:RDF><cc:Work
         rdf:about=""><dc:format>image/svg+xml</dc:format><dc:type
           rdf:resource="http://purl.org/dc/dcmitype/StillImage" /></cc:Work></rdf:RDF></metadata><defs
     id="defs6" /><g
     transform="matrix(1.25,0,0,-1.25,0,230.3125)"
     id="g10"><g
       transform="scale(0.1,0.1)"
       id="g12"><path
         id="path14"
         style="fill:#fbd721;fill-opacity:1;fill-rule:nonzero;stroke:none"
         d="m 0,0 2834.6,0 0,1842.5 L 0,1842.5 0,0 Z" /><path
         id="path16"
         style="fill:#ffffff;fill-opacity:1;fill-rule:nonzero;stroke:none"
         d="m 1652.87,845.41 268.03,285.5 0,-132.926 -268.03,-285.523 0,132.949" /><path
         id="path18"
         style="fill:#ffffff;fill-opacity:1;fill-rule:nonzero;stroke:none"
         d="m 2013.87,845.41 268.02,285.5 0,-132.926 -268.02,-285.523 0,132.949" /><path
         id="path20"
         style="fill:#231f20;fill-opacity:1;fill-rule:nonzero;stroke:none"
         d="m 691.641,1049.32 c -75.645,0 -128.493,-52.859 -128.493,-128.504 0,-73.265 55.25,-128.496 128.493,-128.496 73.257,0 128.496,55.231 128.496,128.496 0,75.645 -52.836,128.504 -128.496,128.504 z M 459.73,532.699 l 0,597.341 95.817,0 0,-70.39 c 32.965,47.69 75.176,80 143.945,80 129.102,0 214.477,-95.73 214.477,-218.834 C 913.969,789.922 829.176,702 702.992,702 c -94.039,0 -126.531,40.77 -149.437,76.121 l 0,-245.422 -93.825,0" /><path
         id="path22"
         style="fill:#231f20;fill-opacity:1;fill-rule:nonzero;stroke:none"
         d="m 942.836,712.461 92.9648,0 0,597.348 -92.9648,0 0,-597.348 z" /><path
         id="path24"
         style="fill:#231f20;fill-opacity:1;fill-rule:nonzero;stroke:none"
         d="m 1288.4,1058.02 c -36.96,0 -70.56,-12.77 -94.6,-36.01 -25.59,-24.74 -39.12,-59.432 -39.12,-100.315 0,-80.804 54.99,-137.234 133.72,-137.234 40.72,0 74.98,14.859 99.06,42.98 21.23,24.825 32.92,58.125 32.92,93.809 0,35.684 -11.69,68.984 -32.92,93.8 -24.08,28.11 -58.34,42.97 -99.06,42.97 z m -14.31,-358.661 c -127.56,0 -213.25,80.43 -213.25,222.336 0,139.325 89.8,218.835 215.88,218.835 86.61,-0.38 121.1,-44.74 145.41,-87.3 l 0,77.68 92.95,0 0,-418.449 -92.95,0 0,83.828 c -33.95,-69.469 -86.15,-96.73 -148.04,-96.93" /><path
         id="path26"
         style="fill:#231f20;fill-opacity:1;fill-rule:nonzero;stroke:none"
         d="m 2281.89,712.461 -268.02,285.523 0,-285.523 -92.97,0 -268.03,285.523 0,-285.523 -92.97,0 0,418.449 92.97,0 268.03,-285.461 0,285.461 92.97,0 268.02,-285.461 0,285.461 92.97,0 0,-418.449 -92.97,0" /></g></g></svg>